REM DIRINDEX 1\2\4,1\2\5,1\2\6,1\3\7,1\3\8
REM DIRNAME folder01,folder02,folder03,folder04,folder05,folder06,folder07,folder08
TITLE ""
FILE "013_Lesson 11_Output_Stage.mp3" MP3
  TRACK 01 AUDIO
    TITLE "0:"
    INDEX 01 00:00:00
  TRACK 02 AUDIO
    TITLE "6:cjc128_0710"
    INDEX 01 00:00:09
  TRACK 03 AUDIO
    TITLE "0:"
    INDEX 01 00:03:19
  TRACK 04 AUDIO
    TITLE "6:cjc128_0711"
    INDEX 01 00:04:38
  TRACK 05 AUDIO
    TITLE "0:"
    INDEX 01 00:06:35
  TRACK 06 AUDIO
    TITLE "4:cjc128_0712"
    INDEX 01 00:07:13
  TRACK 07 AUDIO
    TITLE "0:"
    INDEX 01 00:11:09
  TRACK 08 AUDIO
    TITLE "5:cjc128_0713"
    INDEX 01 00:14:15
  TRACK 09 AUDIO
    TITLE "0:"
    INDEX 01 00:16:46
  TRACK 10 AUDIO
    TITLE "6:cjc128_0714"
    INDEX 01 00:17:31
  TRACK 11 AUDIO
    TITLE "0:"
    INDEX 01 00:19:22
  TRACK 12 AUDIO
    TITLE "4:cjc128_0715"
    INDEX 01 00:20:06
  TRACK 13 AUDIO
    TITLE "0:"
    INDEX 01 00:23:04
  TRACK 14 AUDIO
    TITLE "5:cjc128_0716"
    INDEX 01 00:26:28
  TRACK 15 AUDIO
    TITLE "0:"
    INDEX 01 00:29:23
  TRACK 16 AUDIO
    TITLE "6:cjc128_0717"
    INDEX 01 00:30:01
  TRACK 17 AUDIO
    TITLE "0:"
    INDEX 01 00:31:73
  TRACK 18 AUDIO
    TITLE "4:cjc128_0718"
    INDEX 01 00:32:47
  TRACK 19 AUDIO
    TITLE "0:"
    INDEX 01 00:35:21
  TRACK 20 AUDIO
    TITLE "5:cjc128_0719"
    INDEX 01 00:38:37
  TRACK 21 AUDIO
    TITLE "0:"
    INDEX 01 00:41:06
  TRACK 22 AUDIO
    TITLE "6:cjc128_0720"
    INDEX 01 00:41:61
  TRACK 23 AUDIO
    TITLE "0:"
    INDEX 01 00:43:60
  TRACK 24 AUDIO
    TITLE "4:cjc128_0721"
    INDEX 01 00:44:44
  TRACK 25 AUDIO
    TITLE "0:"
    INDEX 01 00:47:64
  TRACK 26 AUDIO
    TITLE "5:cjc128_0722"
    INDEX 01 00:51:18
  TRACK 27 AUDIO
    TITLE "0:"
    INDEX 01 00:54:13
  TRACK 28 AUDIO
    TITLE "6:cjc128_0723"
    INDEX 01 00:54:68
  TRACK 29 AUDIO
    TITLE "0:"
    INDEX 01 00:56:61
  TRACK 30 AUDIO
    TITLE "4:cjc128_0724"
    INDEX 01 00:57:43
  TRACK 31 AUDIO
    TITLE "0:"
    INDEX 01 01:00:13
  TRACK 32 AUDIO
    TITLE "5:cjc128_0725"
    INDEX 01 01:03:20
  TRACK 33 AUDIO
    TITLE "0:"
    INDEX 01 01:05:44
  TRACK 34 AUDIO
    TITLE "6:cjc128_0726"
    INDEX 01 01:06:34
  TRACK 35 AUDIO
    TITLE "0:"
    INDEX 01 01:08:17
  TRACK 36 AUDIO
    TITLE "4:cjc128_0727"
    INDEX 01 01:08:74
  TRACK 37 AUDIO
    TITLE "0:"
    INDEX 01 01:13:10
  TRACK 38 AUDIO
    TITLE "5:cjc128_0728"
    INDEX 01 01:16:36
  TRACK 39 AUDIO
    TITLE "0:"
    INDEX 01 01:19:46
  TRACK 40 AUDIO
    TITLE "6:cjc128_0729"
    INDEX 01 01:20:22
  TRACK 41 AUDIO
    TITLE "0:"
    INDEX 01 01:22:21
  TRACK 42 AUDIO
    TITLE "4:cjc128_0730"
    INDEX 01 01:22:74
  TRACK 43 AUDIO
    TITLE "0:"
    INDEX 01 01:26:21
  TRACK 44 AUDIO
    TITLE "5:cjc128_0731"
    INDEX 01 01:29:13
  TRACK 45 AUDIO
    TITLE "0:"
    INDEX 01 01:31:53
  TRACK 46 AUDIO
    TITLE "6:cjc128_0732"
    INDEX 01 01:32:27
  TRACK 47 AUDIO
    TITLE "0:"
    INDEX 01 01:34:01
  TRACK 48 AUDIO
    TITLE "4:cjc128_0733"
    INDEX 01 01:34:59
  TRACK 49 AUDIO
    TITLE "0:"
    INDEX 01 01:38:14
  TRACK 50 AUDIO
    TITLE "5:cjc128_0734"
    INDEX 01 01:41:67
  TRACK 51 AUDIO
    TITLE "0:"
    INDEX 01 01:44:64
  TRACK 52 AUDIO
    TITLE "6:cjc128_0735"
    INDEX 01 01:45:53
  TRACK 53 AUDIO
    TITLE "0:"
    INDEX 01 01:47:44
  TRACK 54 AUDIO
    TITLE "4:cjc128_0736"
    INDEX 01 01:48:26
  TRACK 55 AUDIO
    TITLE "0:"
    INDEX 01 01:51:68
  TRACK 56 AUDIO
    TITLE "5:cjc128_0737"
    INDEX 01 01:55:40
  TRACK 57 AUDIO
    TITLE "0:"
    INDEX 01 01:58:66
  TRACK 58 AUDIO
    TITLE "6:cjc128_0738"
    INDEX 01 01:59:42
  TRACK 59 AUDIO
    TITLE "0:"
    INDEX 01 02:01:43
  TRACK 60 AUDIO
    TITLE "4:cjc128_0739"
    INDEX 01 02:02:24
  TRACK 61 AUDIO
    TITLE "0:"
    INDEX 01 02:05:17
  TRACK 62 AUDIO
    TITLE "5:cjc128_0740"
    INDEX 01 02:08:25
  TRACK 63 AUDIO
    TITLE "0:"
    INDEX 01 02:10:57
  TRACK 64 AUDIO
    TITLE "6:cjc128_0741"
    INDEX 01 02:11:43
  TRACK 65 AUDIO
    TITLE "0:"
    INDEX 01 02:13:34
  TRACK 66 AUDIO
    TITLE "4:cjc128_0742"
    INDEX 01 02:14:18
  TRACK 67 AUDIO
    TITLE "0:"
    INDEX 01 02:16:44
  TRACK 68 AUDIO
    TITLE "5:cjc128_0743"
    INDEX 01 02:19:11
  TRACK 69 AUDIO
    TITLE "0:"
    INDEX 01 02:21:08
  TRACK 70 AUDIO
    TITLE "6:cjc128_0744"
    INDEX 01 02:21:65
  TRACK 71 AUDIO
    TITLE "0:"
    INDEX 01 02:23:58
  TRACK 72 AUDIO
    TITLE "4:cjc128_0745"
    INDEX 01 02:24:36
  TRACK 73 AUDIO
    TITLE "0:"
    INDEX 01 02:26:33
  TRACK 74 AUDIO
    TITLE "5:cjc128_0746"
    INDEX 01 02:28:39
  TRACK 75 AUDIO
    TITLE "0:"
    INDEX 01 02:30:17
  TRACK 76 AUDIO
    TITLE "6:cjc128_0747"
    INDEX 01 02:30:66
  TRACK 77 AUDIO
    TITLE "0:"
    INDEX 01 02:32:57
  TRACK 78 AUDIO
    TITLE "4:cjc128_0748"
    INDEX 01 02:33:33
  TRACK 79 AUDIO
    TITLE "0:"
    INDEX 01 02:36:15
  TRACK 80 AUDIO
    TITLE "5:cjc128_0749"
    INDEX 01 02:39:00
  TRACK 81 AUDIO
    TITLE "0:"
    INDEX 01 02:41:13
  TRACK 82 AUDIO
    TITLE "6:cjc128_0750"
    INDEX 01 02:41:64
  TRACK 83 AUDIO
    TITLE "0:"
    INDEX 01 02:43:61
  TRACK 84 AUDIO
    TITLE "4:cjc128_0751"
    INDEX 01 02:44:44
  TRACK 85 AUDIO
    TITLE "0:"
    INDEX 01 02:46:65
  TRACK 86 AUDIO
    TITLE "5:cjc128_0752"
    INDEX 01 02:49:10
  TRACK 87 AUDIO
    TITLE "0:"
    INDEX 01 02:50:66
  TRACK 88 AUDIO
    TITLE "6:cjc128_0753"
    INDEX 01 02:51:44
  TRACK 89 AUDIO
    TITLE "0:"
    INDEX 01 02:53:37
  TRACK 90 AUDIO
    TITLE "4:cjc128_0754"
    INDEX 01 02:54:13
  TRACK 91 AUDIO
    TITLE "0:"
    INDEX 01 02:57:20
  TRACK 92 AUDIO
    TITLE "5:cjc128_0755"
    INDEX 01 02:59:71
  TRACK 93 AUDIO
    TITLE "0:"
    INDEX 01 03:02:17
  TRACK 94 AUDIO
    TITLE "6:cjc128_0756"
    INDEX 01 03:02:66
  TRACK 95 AUDIO
    TITLE "0:"
    INDEX 01 03:04:51
  TRACK 96 AUDIO
    TITLE "4:cjc128_0757"
    INDEX 01 03:05:29
  TRACK 97 AUDIO
    TITLE "0:"
    INDEX 01 03:07:55
  TRACK 98 AUDIO
    TITLE "5:cjc128_0758"
    INDEX 01 03:10:20
  TRACK 99 AUDIO
    TITLE "0:"
    INDEX 01 03:12:09
  TRACK 100 AUDIO
    TITLE "6:cjc128_0759"
    INDEX 01 03:12:62
  TRACK 101 AUDIO
    TITLE "0:"
    INDEX 01 03:14:53
  TRACK 102 AUDIO
    TITLE "4:cjc128_0760"
    INDEX 01 03:15:29
  TRACK 103 AUDIO
    TITLE "0:"
    INDEX 01 03:17:36
  TRACK 104 AUDIO
    TITLE "5:cjc128_0761"
    INDEX 01 03:20:03
  TRACK 105 AUDIO
    TITLE "0:"
    INDEX 01 03:22:18
  TRACK 106 AUDIO
    TITLE "6:cjc128_0762"
    INDEX 01 03:22:66
  TRACK 107 AUDIO
    TITLE "0:"
    INDEX 01 03:24:36
  TRACK 108 AUDIO
    TITLE "4:cjc128_0763"
    INDEX 01 03:25:20
  TRACK 109 AUDIO
    TITLE "0:"
    INDEX 01 03:27:07
  TRACK 110 AUDIO
    TITLE "5:cjc128_0764"
    INDEX 01 03:29:72
  TRACK 111 AUDIO
    TITLE "0:"
    INDEX 01 03:32:06
  TRACK 112 AUDIO
    TITLE "6:cjc128_0765"
    INDEX 01 03:32:71
  TRACK 113 AUDIO
    TITLE "0:"
    INDEX 01 03:34:54
  TRACK 114 AUDIO
    TITLE "4:cjc128_0766"
    INDEX 01 03:35:36
  TRACK 115 AUDIO
    TITLE "0:"
    INDEX 01 03:37:60
  TRACK 116 AUDIO
    TITLE "5:cjc128_0767"
    INDEX 01 03:40:45
  TRACK 117 AUDIO
    TITLE "0:"
    INDEX 01 03:42:67
  TRACK 118 AUDIO
    TITLE "6:cjc128_0768"
    INDEX 01 03:43:39
  TRACK 119 AUDIO
    TITLE "0:"
    INDEX 01 03:45:30
  TRACK 120 AUDIO
    TITLE "4:cjc128_0769"
    INDEX 01 03:46:12
  TRACK 121 AUDIO
    TITLE "0:"
    INDEX 01 03:48:05
  TRACK 122 AUDIO
    TITLE "5:cjc128_0770"
    INDEX 01 03:50:14
  TRACK 123 AUDIO
    TITLE "0:"
    INDEX 01 03:51:64
  TRACK 124 AUDIO
    TITLE "6:cjc128_0771"
    INDEX 01 03:52:48
  TRACK 125 AUDIO
    TITLE "0:"
    INDEX 01 03:54:43
  TRACK 126 AUDIO
    TITLE "4:cjc128_0772"
    INDEX 01 03:55:23
  TRACK 127 AUDIO
    TITLE "0:"
    INDEX 01 03:58:11
  TRACK 128 AUDIO
    TITLE "5:cjc128_0773"
    INDEX 01 04:01:53
  TRACK 129 AUDIO
    TITLE "0:"
    INDEX 01 04:04:39
  TRACK 130 AUDIO
    TITLE "6:cjc128_0774"
    INDEX 01 04:05:27
  TRACK 131 AUDIO
    TITLE "0:"
    INDEX 01 04:07:22
  TRACK 132 AUDIO
    TITLE "4:cjc128_0775"
    INDEX 01 04:08:06
  TRACK 133 AUDIO
    TITLE "0:"
    INDEX 01 04:10:56
  TRACK 134 AUDIO
    TITLE "5:cjc128_0776"
    INDEX 01 04:13:42
  TRACK 135 AUDIO
    TITLE "0:"
    INDEX 01 04:15:65
  TRACK 136 AUDIO
    TITLE "6:cjc128_0777"
    INDEX 01 04:16:45
  TRACK 137 AUDIO
    TITLE "0:"
    INDEX 01 04:18:49
  TRACK 138 AUDIO
    TITLE "4:cjc128_0778"
    INDEX 01 04:19:35
  TRACK 139 AUDIO
    TITLE "0:"
    INDEX 01 04:22:53
  TRACK 140 AUDIO
    TITLE "5:cjc128_0779"
    INDEX 01 04:25:59
  TRACK 141 AUDIO
    TITLE "0:"
    INDEX 01 04:28:12
